<?xml version="1.0" encoding="UTF-8"?>
<svg width="800px" height="600px" viewBox="0 0 800 600" version="1.1" xmlns="http://www.w3.org/2000/svg">
    <defs>
        <linearGradient id="bgGradient" x1="0%" y1="0%" x2="100%" y2="100%">
            <stop offset="0%" style="stop-color:#1a237e;stop-opacity:1" />
            <stop offset="100%" style="stop-color:#0d47a1;stop-opacity:1" />
        </linearGradient>
        <filter id="glow" x="-50%" y="-50%" width="200%" height="200%">
            <feGaussianBlur stdDeviation="5" result="coloredBlur"/>
            <feMerge>
                <feMergeNode in="coloredBlur"/>
                <feMergeNode in="SourceGraphic"/>
            </feMerge>
        </filter>
    </defs>
    
    <!-- Background -->
    <rect width="800" height="600" fill="url(#bgGradient)"/>
    
    <!-- Soccer Ball -->
    <g transform="translate(400, 300)" filter="url(#glow)">
        <circle cx="0" cy="0" r="80" fill="#FFFFFF"/>
        <path d="M0,-80 L40,-40 L80,0 L40,40 L0,80 L-40,40 L-80,0 L-40,-40 Z" fill="#000000"/>
        <circle cx="0" cy="0" r="20" fill="#000000"/>
    </g>
    
    <!-- Gears -->
    <g transform="translate(200, 200)" class="gear-left">
        <circle cx="0" cy="0" r="50" fill="#FFD700" opacity="0.9"/>
        <g>
            <rect x="-8" y="-60" width="16" height="40" fill="#FFD700"/>
            <rect x="-8" y="20" width="16" height="40" fill="#FFD700"/>
            <rect x="-60" y="-8" width="40" height="16" fill="#FFD700"/>
            <rect x="20" y="-8" width="40" height="16" fill="#FFD700"/>
        </g>
    </g>
    
    <g transform="translate(600, 400)" class="gear-right">
        <circle cx="0" cy="0" r="40" fill="#4CAF50" opacity="0.9"/>
        <g>
            <rect x="-6" y="-50" width="12" height="30" fill="#4CAF50"/>
            <rect x="-6" y="20" width="12" height="30" fill="#4CAF50"/>
            <rect x="-50" y="-6" width="30" height="12" fill="#4CAF50"/>
            <rect x="20" y="-6" width="30" height="12" fill="#4CAF50"/>
        </g>
    </g>
    
    <!-- Tools -->
    <g transform="translate(500, 200)">
        <path d="M-20,-20 L20,20 M-20,20 L20,-20" stroke="#FFFFFF" stroke-width="8" opacity="0.8"/>
    </g>
    
    <!-- Decorative Lines -->
    <g stroke="#FFFFFF" stroke-width="2" opacity="0.2">
        <line x1="0" y1="100" x2="800" y2="100"/>
        <line x1="0" y1="500" x2="800" y2="500"/>
        <line x1="100" y1="0" x2="100" y2="600"/>
        <line x1="700" y1="0" x2="700" y2="600"/>
    </g>
</svg>